<svg width="441" height="441" viewBox="0 0 441 441" fill="none" xmlns="http://www.w3.org/2000/svg">
<circle cx="220.5" cy="220.5" r="220.5" fill="#F4F4F4"/>
<path fill-rule="evenodd" clip-rule="evenodd" d="M16 219.501C16 107.067 107.067 16 219.501 16C331.935 16 423.001 107.067 423 219.501C423 331.833 331.933 423 219.501 423C107.067 423 16 331.833 16 219.501ZM97.3999 341.601L264.067 264.067L341.601 97.3999L174.934 174.934L97.3999 341.601ZM241.886 219.501C241.886 231.812 231.913 241.886 219.501 241.886C207.189 241.886 197.114 231.812 197.114 219.501C197.114 207.188 207.188 197.114 219.501 197.114C231.914 197.114 241.886 207.188 241.886 219.501Z" fill="#121214"/>
</svg>
